<?xml version="1.0" standalone="no"?>
<!DOCTYPE svg PUBLIC "-//W3C//DTD SVG 20010904//EN"
 "http://www.w3.org/TR/2001/REC-SVG-20010904/DTD/svg10.dtd">
<svg version="1.0" xmlns="http://www.w3.org/2000/svg"
 width="1022.000000pt" height="1022.000000pt" viewBox="0 0 1022.000000 1022.000000"
 preserveAspectRatio="xMidYMid meet">
<metadata>
Created by potrace 1.14, written by Peter Selinger 2001-2017
</metadata>
<g transform="translate(0.000000,1022.000000) scale(0.100000,-0.100000)"
fill="#000000" stroke="none">
<path d="M4075 7913 c-33 -8 -119 -78 -167 -135 -71 -84 -195 -282 -257 -408
-12 -25 -26 -52 -32 -60 -12 -19 -179 -368 -179 -374 0 -3 -20 -49 -45 -102
-25 -53 -45 -99 -45 -103 0 -5 -6 -21 -14 -37 -8 -16 -21 -47 -31 -69 -9 -22
-22 -53 -30 -70 -20 -46 -40 -94 -70 -170 -15 -38 -33 -83 -40 -100 -20 -49
-85 -216 -107 -275 -25 -68 -34 -77 -82 -84 -21 -4 -88 -18 -150 -31 -61 -14
-120 -27 -131 -29 -11 -3 -47 -12 -80 -21 -33 -9 -69 -18 -80 -20 -11 -3 -32
-7 -47 -11 -15 -3 -29 -5 -30 -4 -2 0 -30 -9 -63 -20 -33 -11 -60 -20 -60 -19
0 4 -113 -29 -279 -82 -54 -17 -103 -32 -110 -34 -6 -1 -18 -4 -26 -8 -8 -3
-87 -31 -175 -62 -88 -31 -173 -63 -190 -70 -62 -26 -100 -40 -107 -37 -5 1
-8 -2 -8 -8 0 -5 -16 -12 -35 -16 -19 -3 -35 -10 -35 -15 0 -5 -6 -9 -14 -9
-7 0 -53 -18 -102 -41 -137 -63 -159 -73 -162 -81 -2 -5 -9 -8 -15 -8 -15 0
-161 -73 -165 -82 -2 -5 -8 -8 -12 -8 -10 0 -203 -110 -260 -147 -19 -13 -42
-28 -50 -33 -8 -5 -49 -33 -90 -62 -41 -30 -91 -65 -110 -78 -19 -14 -37 -27
-40 -30 -3 -3 -34 -29 -70 -59 -139 -117 -216 -218 -256 -337 -22 -67 -25 -90
-21 -154 7 -94 9 -105 44 -177 38 -79 164 -204 269 -266 166 -98 422 -191 667
-242 10 -2 26 -6 35 -9 9 -3 34 -7 54 -10 21 -3 57 -10 80 -15 44 -10 100 -19
153 -26 17 -3 46 -7 65 -10 46 -7 93 -14 155 -20 28 -3 64 -8 80 -10 17 -3 64
-7 105 -11 41 -3 79 -7 85 -8 5 0 61 -77 124 -171 228 -341 439 -603 602 -750
58 -52 166 -135 176 -135 6 0 21 -9 35 -19 37 -29 145 -61 208 -61 72 0 113
14 169 57 84 63 124 150 158 338 5 31 5 367 -1 393 -3 12 -4 22 -2 22 2 0 79
-75 172 -167 180 -179 324 -314 324 -304 0 3 12 -8 28 -24 15 -17 45 -43 67
-59 22 -17 42 -33 45 -36 14 -17 130 -100 139 -100 6 0 11 -4 11 -8 0 -5 19
-19 41 -33 23 -13 58 -34 78 -46 43 -27 91 -50 176 -84 104 -41 206 -39 303 7
37 17 84 48 104 68 34 32 100 135 104 161 1 5 7 28 13 50 43 162 30 422 -38
725 -18 82 -45 75 282 76 380 2 595 11 892 39 67 6 201 23 255 31 19 3 51 7
70 10 19 2 46 6 60 9 14 3 37 8 53 10 15 3 38 7 52 9 85 15 196 41 305 71 69
20 132 37 140 39 75 20 378 134 495 186 22 10 68 29 102 44 57 24 130 56 210
92 50 23 211 84 230 88 10 1 25 6 33 9 16 6 116 27 130 27 4 0 8 -26 7 -57 0
-47 5 -93 18 -153 21 -98 121 -259 232 -375 78 -82 252 -227 350 -292 10 -7
35 -24 57 -38 59 -40 223 -137 301 -180 39 -21 80 -45 93 -53 12 -8 22 -11 22
-7 0 3 12 -2 28 -12 28 -19 57 -34 207 -103 134 -62 157 -69 195 -56 64 21 75
50 76 204 1 121 9 255 18 309 12 65 16 93 21 128 4 22 8 48 11 57 13 44 25
125 25 163 0 90 -40 260 -65 277 -6 4 -7 8 -3 8 16 0 -87 176 -205 353 -121
179 -160 250 -152 272 3 7 40 21 82 31 62 15 116 19 277 19 110 0 248 -4 307
-9 l108 -8 35 35 c57 57 45 121 -35 187 -23 19 -47 40 -53 45 -79 70 -244 148
-402 190 -57 15 -74 19 -135 31 -134 24 -448 24 -635 -1 -16 -2 -48 -6 -70 -9
-22 -2 -62 -10 -90 -16 -27 -6 -61 -14 -75 -16 -21 -4 -108 -25 -145 -35 -13
-4 -77 11 -90 20 -5 4 -30 13 -55 20 -25 6 -54 16 -65 21 -11 4 -96 38 -190
75 -93 37 -183 73 -200 81 -16 7 -82 34 -145 60 -63 25 -124 51 -135 57 -11 6
-26 12 -33 13 -8 1 -28 9 -45 17 -18 8 -86 36 -152 62 -66 26 -133 53 -150 60
-57 24 -216 80 -260 92 -5 1 -26 7 -45 12 -60 17 -314 83 -335 87 -24 4 -61
12 -95 20 -41 9 -163 35 -190 40 -14 2 -50 10 -80 16 -30 6 -64 12 -75 14 -11
1 -31 4 -45 7 -40 8 -252 46 -285 51 -16 3 -70 12 -120 20 -49 9 -108 18 -130
21 -22 4 -51 8 -65 11 -14 2 -47 7 -75 10 -27 3 -59 8 -70 11 -11 4 -33 8 -50
9 -16 2 -41 5 -55 7 -14 2 -52 8 -85 12 -33 4 -69 9 -80 11 -11 2 -40 6 -65 9
-25 3 -56 8 -70 10 -14 3 -47 7 -75 10 -27 3 -63 8 -80 10 -16 2 -52 7 -80 11
-27 3 -53 8 -56 10 -4 2 -10 37 -14 76 -4 40 -9 81 -10 90 -2 9 -6 43 -10 75
-3 32 -8 72 -11 88 -2 17 -6 48 -9 70 -2 21 -10 75 -16 120 -6 44 -13 94 -15
110 -4 38 -20 134 -48 300 -17 99 -21 117 -36 190 -6 28 -13 64 -16 80 -2 17
-7 41 -11 55 -3 14 -7 31 -9 39 -7 37 -27 119 -35 146 -4 17 -16 55 -25 85
-69 235 -150 378 -241 424 -30 15 -95 19 -138 9z"/>
</g>
</svg>
