<?xml version="1.0" encoding="UTF-8"?>
<svg xmlns="http://www.w3.org/2000/svg" xmlns:xlink="http://www.w3.org/1999/xlink" width="100px" height="55px" viewBox="0 0 99 55" version="1.1">
<defs>
<clipPath id="clip1">
  <path d="M 1 34 L 32 34 L 32 46 L 1 46 Z M 1 34 "/>
</clipPath>
<clipPath id="clip2">
  <path d="M 80.40625 36.460938 C 76.105469 36.074219 72.519531 39.601562 64.5 41.554688 C 56.460938 43.503906 45.300781 42.898438 45.300781 42.898438 C 45.902344 45.589844 47.972656 53.078125 43.964844 53.820312 C 39.953125 54.5625 29.683594 42.429688 29.683594 42.429688 C 0.683594 42.605469 -1.894531 35.800781 3.046875 31.527344 C 12.714844 23.140625 30.113281 20.292969 30.113281 20.292969 C 30.113281 20.292969 37.707031 -0.378906 40.378906 1.121094 C 43.054688 2.625 44.699219 20.136719 44.699219 20.136719 C 44.699219 20.136719 62.851562 22.246094 69.691406 24.9375 C 76.53125 27.628906 79.070312 28.972656 82.632812 30.027344 C 82.632812 30.027344 92.902344 26.730469 97.957031 31.820312 C 97.957031 31.820312 90.363281 30.921875 89.78125 32.875 C 89.183594 34.824219 94.683594 39.015625 93.792969 42.898438 C 92.902344 46.800781 93.191406 49.492188 93.191406 49.492188 C 93.191406 49.492188 77.132812 42.898438 80.40625 36.460938 Z M 80.40625 36.460938 "/>
</clipPath>
<clipPath id="clip3">
  <path d="M 47 33 L 70 33 L 70 46 L 47 46 Z M 47 33 "/>
</clipPath>
<clipPath id="clip4">
  <path d="M 80.40625 36.460938 C 76.105469 36.074219 72.519531 39.601562 64.5 41.554688 C 56.460938 43.503906 45.300781 42.898438 45.300781 42.898438 C 45.902344 45.589844 47.972656 53.078125 43.964844 53.820312 C 39.953125 54.5625 29.683594 42.429688 29.683594 42.429688 C 0.683594 42.605469 -1.894531 35.800781 3.046875 31.527344 C 12.714844 23.140625 30.113281 20.292969 30.113281 20.292969 C 30.113281 20.292969 37.707031 -0.378906 40.378906 1.121094 C 43.054688 2.625 44.699219 20.136719 44.699219 20.136719 C 44.699219 20.136719 62.851562 22.246094 69.691406 24.9375 C 76.53125 27.628906 79.070312 28.972656 82.632812 30.027344 C 82.632812 30.027344 92.902344 26.730469 97.957031 31.820312 C 97.957031 31.820312 90.363281 30.921875 89.78125 32.875 C 89.183594 34.824219 94.683594 39.015625 93.792969 42.898438 C 92.902344 46.800781 93.191406 49.492188 93.191406 49.492188 C 93.191406 49.492188 77.132812 42.898438 80.40625 36.460938 Z M 80.40625 36.460938 "/>
</clipPath>
<clipPath id="clip5">
  <path d="M 16 26 L 25 26 L 25 32 L 16 32 Z M 16 26 "/>
</clipPath>
<clipPath id="clip6">
  <path d="M 80.40625 36.460938 C 76.105469 36.074219 72.519531 39.601562 64.5 41.554688 C 56.460938 43.503906 45.300781 42.898438 45.300781 42.898438 C 45.902344 45.589844 47.972656 53.078125 43.964844 53.820312 C 39.953125 54.5625 29.683594 42.429688 29.683594 42.429688 C 0.683594 42.605469 -1.894531 35.800781 3.046875 31.527344 C 12.714844 23.140625 30.113281 20.292969 30.113281 20.292969 C 30.113281 20.292969 37.707031 -0.378906 40.378906 1.121094 C 43.054688 2.625 44.699219 20.136719 44.699219 20.136719 C 44.699219 20.136719 62.851562 22.246094 69.691406 24.9375 C 76.53125 27.628906 79.070312 28.972656 82.632812 30.027344 C 82.632812 30.027344 92.902344 26.730469 97.957031 31.820312 C 97.957031 31.820312 90.363281 30.921875 89.78125 32.875 C 89.183594 34.824219 94.683594 39.015625 93.792969 42.898438 C 92.902344 46.800781 93.191406 49.492188 93.191406 49.492188 C 93.191406 49.492188 77.132812 42.898438 80.40625 36.460938 Z M 80.40625 36.460938 "/>
</clipPath>
<clipPath id="clip7">
  <path d="M 13 32 L 17 32 L 17 37 L 13 37 Z M 13 32 "/>
</clipPath>
<clipPath id="clip8">
  <path d="M 80.40625 36.460938 C 76.105469 36.074219 72.519531 39.601562 64.5 41.554688 C 56.460938 43.503906 45.300781 42.898438 45.300781 42.898438 C 45.902344 45.589844 47.972656 53.078125 43.964844 53.820312 C 39.953125 54.5625 29.683594 42.429688 29.683594 42.429688 C 0.683594 42.605469 -1.894531 35.800781 3.046875 31.527344 C 12.714844 23.140625 30.113281 20.292969 30.113281 20.292969 C 30.113281 20.292969 37.707031 -0.378906 40.378906 1.121094 C 43.054688 2.625 44.699219 20.136719 44.699219 20.136719 C 44.699219 20.136719 62.851562 22.246094 69.691406 24.9375 C 76.53125 27.628906 79.070312 28.972656 82.632812 30.027344 C 82.632812 30.027344 92.902344 26.730469 97.957031 31.820312 C 97.957031 31.820312 90.363281 30.921875 89.78125 32.875 C 89.183594 34.824219 94.683594 39.015625 93.792969 42.898438 C 92.902344 46.800781 93.191406 49.492188 93.191406 49.492188 C 93.191406 49.492188 77.132812 42.898438 80.40625 36.460938 Z M 80.40625 36.460938 "/>
</clipPath>
</defs>
<g id="surface1">
<path style="fill-rule:nonzero;fill:rgb(31.372549%,30.980392%,30.980392%);fill-opacity:1;stroke-width:10.8;stroke-linecap:round;stroke-linejoin:round;stroke:rgb(21.568627%,12.156863%,4.313725%);stroke-opacity:1;stroke-miterlimit:10;" d="M 92.501002 213.890716 C 92.501002 213.890716 127.80565 273.795687 147.806913 272.293557 C 167.808175 270.791426 153.190317 208.603216 153.190317 208.603216 Z M 92.501002 213.890716 " transform="matrix(0.193738,0,0,0.195035,0.00484346,-0.00924308)"/>
<path style="fill-rule:nonzero;fill:rgb(31.372549%,30.980392%,30.980392%);fill-opacity:1;stroke-width:10.8;stroke-linecap:round;stroke-linejoin:round;stroke:rgb(21.568627%,12.156863%,4.313725%);stroke-opacity:1;stroke-miterlimit:10;" d="M 415.001199 186.992562 C 392.802217 185.00975 374.292984 203.095403 332.899242 213.109608 C 291.404687 223.103784 233.800245 219.99938 233.800245 219.99938 C 236.905279 233.798954 247.591438 272.193415 226.904648 275.998812 C 206.197696 279.80421 153.190317 217.595971 153.190317 217.595971 C 3.503448 218.49725 -9.803843 183.607761 15.701799 161.696682 C 65.604143 118.695687 155.408199 104.094977 155.408199 104.094977 C 155.408199 104.094977 194.604222 -1.895364 208.395415 5.795545 C 222.206771 13.506483 230.69521 103.293841 230.69521 103.293841 C 230.69521 103.293841 324.390641 114.109182 359.695289 127.908755 C 394.999937 141.708329 408.105603 148.598102 426.49386 154.005772 C 426.49386 154.005772 479.501239 137.101795 505.591596 163.198812 C 505.591596 163.198812 466.395573 158.592278 463.391351 168.606483 C 460.306479 178.600659 488.695368 200.091142 484.098303 219.99938 C 479.501239 240.007761 480.993269 253.807335 480.993269 253.807335 C 480.993269 253.807335 398.104971 219.99938 415.001199 186.992562 Z M 415.001199 186.992562 " transform="matrix(0.193738,0,0,0.195035,0.00484346,-0.00924308)"/>
<g clip-path="url(#clip1)" clip-rule="nonzero">
<g clip-path="url(#clip2)" clip-rule="nonzero">
<path style=" stroke:none;fill-rule:nonzero;fill:rgb(100%,100%,100%);fill-opacity:1;" d="M 0.238281 35.273438 C 0.238281 35.273438 16.898438 33.632812 20.773438 35.273438 C 24.648438 36.910156 29.550781 43.367188 31.042969 44.847656 C 32.515625 46.351562 -0.519531 44.109375 0.238281 35.273438 Z M 0.238281 35.273438 "/>
</g>
</g>
<g clip-path="url(#clip3)" clip-rule="nonzero">
<g clip-path="url(#clip4)" clip-rule="nonzero">
<path style=" stroke:none;fill-rule:nonzero;fill:rgb(100%,100%,100%);fill-opacity:1;" d="M 47.683594 44.109375 C 47.683594 44.109375 51.847656 37.066406 58.398438 34.980469 C 64.945312 32.875 69.710938 34.082031 69.246094 36.773438 C 68.800781 39.464844 64.925781 38.414062 62.851562 40.070312 C 60.78125 41.707031 59.425781 44.417969 59.425781 44.417969 C 59.425781 44.417969 49.019531 46.039062 47.683594 44.109375 Z M 47.683594 44.109375 "/>
</g>
</g>
<g clip-path="url(#clip5)" clip-rule="nonzero">
<g clip-path="url(#clip6)" clip-rule="nonzero">
<path style=" stroke:none;fill-rule:nonzero;fill:rgb(100%,100%,100%);fill-opacity:1;" d="M 24.453125 28.269531 C 24.804688 29.460938 23.273438 30.941406 21.0625 31.585938 C 18.855469 32.230469 16.78125 31.78125 16.453125 30.59375 C 16.105469 29.402344 17.636719 27.917969 19.84375 27.277344 C 22.050781 26.632812 24.125 27.082031 24.453125 28.269531 Z M 24.453125 28.269531 "/>
</g>
</g>
<g clip-path="url(#clip7)" clip-rule="nonzero">
<g clip-path="url(#clip8)" clip-rule="nonzero">
<path style=" stroke:none;fill-rule:nonzero;fill:rgb(21.568627%,12.156863%,4.313725%);fill-opacity:1;" d="M 16.589844 34.21875 C 16.589844 35.214844 15.792969 36.015625 14.804688 36.015625 C 13.816406 36.015625 13.023438 35.214844 13.023438 34.21875 C 13.023438 33.226562 13.816406 32.425781 14.804688 32.425781 C 15.792969 32.425781 16.589844 33.226562 16.589844 34.21875 Z M 16.589844 34.21875 "/>
</g>
</g>
<path style="fill:none;stroke-width:10.8;stroke-linecap:round;stroke-linejoin:round;stroke:rgb(21.568627%,12.156863%,4.313725%);stroke-opacity:1;stroke-miterlimit:10;" d="M 415.001199 186.992562 C 392.802217 185.00975 374.292984 203.095403 332.899242 213.109608 C 291.404687 223.103784 233.800245 219.99938 233.800245 219.99938 C 236.905279 233.798954 247.591438 272.193415 226.904648 275.998812 C 206.197696 279.80421 153.190317 217.595971 153.190317 217.595971 C 3.503448 218.49725 -9.803843 183.607761 15.701799 161.696682 C 65.604143 118.695687 155.408199 104.094977 155.408199 104.094977 C 155.408199 104.094977 194.604222 -1.895364 208.395415 5.795545 C 222.206771 13.506483 230.69521 103.293841 230.69521 103.293841 C 230.69521 103.293841 324.390641 114.109182 359.695289 127.908755 C 394.999937 141.708329 408.105603 148.598102 426.49386 154.005772 C 426.49386 154.005772 479.501239 137.101795 505.591596 163.198812 C 505.591596 163.198812 466.395573 158.592278 463.391351 168.606483 C 460.306479 178.600659 488.695368 200.091142 484.098303 219.99938 C 479.501239 240.007761 480.993269 253.807335 480.993269 253.807335 C 480.993269 253.807335 398.104971 219.99938 415.001199 186.992562 Z M 415.001199 186.992562 " transform="matrix(0.193738,0,0,0.195035,0.00484346,-0.00924308)"/>
</g>
</svg>
